<?xml version="1.0" standalone="no"?><svg xmlns:xlink="http://www.w3.org/1999/xlink" xmlns="http://www.w3.org/2000/svg" viewBox="0 0 1000 636.3636363636364" preserveAspectRatio="xMaxYMax slice"><g transform="scale(1.429388221841052)"><rect x="0" y="0" width="699.6000000000001" height="445.20000000000005" fill="#ffffff"/><rect x="0" y="0" width="63.60000000000001" height="63.60000000000001" fill="#ffffff"/><rect x="0" y="0" width="31.8" height="31.8" fill="#183FE1"/><polygon points="31.8,0 31.8,31.8 0,31.8" fill="#33b8ff"/><rect x="31.8" y="0" width="31.8" height="31.8" fill="#132186"/><polygon points="31.8,0 63.6,31.8 31.8,31.8" fill="#132186"/><rect x="0" y="31.8" width="31.8" height="31.8" fill="#33b8ff"/><polygon points="0,31.8 31.8,31.8 31.8,63.6" fill="#33b8ff"/><rect x="31.8" y="31.8" width="31.8" height="31.8" fill="#132186"/><polygon points="31.8,31.8 63.6,31.8 31.8,63.6" fill="#33b8ff"/><rect x="63.60000000000001" y="0" width="63.60000000000001" height="63.60000000000001" fill="#ffffff"/><rect x="63.6" y="0" width="31.8" height="31.8" fill="#132186"/><path d="M 63.6 31.8 A 31.8 31.8 0 0 1 95.4 0 L 95.4 7.95 A 23.85 23.85 0 0 0 71.55 31.8" fill="#132186"/><rect x="95.4" y="0" width="31.8" height="31.8" fill="#132186"/><path d="M 95.4 0 A 31.8 31.8 0 0 1 127.2 31.8 L 119.25 31.8 A 23.85 23.85 0 0 0 95.4 7.95" fill="#183FE1"/><rect x="63.6" y="31.8" width="31.8" height="31.8" fill="#132186"/><path d="M 63.6 31.8 A 31.8 31.8 0 0 0 95.4 63.6 L 95.4 55.650000000000006 A 23.85 23.85 0 0 1 71.55 31.8" fill="#132186"/><rect x="95.4" y="31.8" width="31.8" height="31.8" fill="#132186"/><path d="M 95.4 63.6 A 31.8 31.8 0 0 0 127.2 31.8 L 119.25 31.8 A 23.85 23.85 0 0 1 95.4 55.650000000000006" fill="#183FE1"/><rect x="127.20000000000002" y="0" width="63.60000000000001" height="63.60000000000001" fill="#ffffff"/><rect x="127.2" y="0" width="31.8" height="31.8" fill="#132186"/><polygon points="159,0 159,31.8 127.2,31.8" fill="#132186"/><rect x="159" y="0" width="31.8" height="31.8" fill="#183FE1"/><polygon points="159,0 190.8,31.8 159,31.8" fill="#183FE1"/><rect x="127.2" y="31.8" width="31.8" height="31.8" fill="#33b8ff"/><polygon points="127.2,31.8 159,31.8 127.2,63.6" fill="#33b8ff"/><rect x="159" y="31.8" width="31.8" height="31.8" fill="#183FE1"/><polygon points="159,31.8 190.8,31.8 190.8,63.6" fill="#183FE1"/><rect x="190.8" y="0" width="63.6" height="63.6" fill="#132186"/><polygon points="190.8,0 254.4,63.6 190.8,63.6" fill="#132186"/><rect x="254.4" y="0" width="63.6" height="63.6" fill="#33b8ff"/><rect x="254.4" y="0" width="63.6" height="63.6" fill="#132186"/><rect x="318" y="0" width="63.6" height="63.6" fill="#132186"/><rect x="318" y="0" width="63.6" height="63.6" fill="#183FE1"/><rect x="381.6" y="0" width="63.60000000000001" height="63.60000000000001" fill="#ffffff"/><rect x="381.6" y="0" width="31.8" height="31.8" fill="#132186"/><path d="M 381.6 0 A 31.8 31.8 0 0 1 413.40000000000003 31.8 L 381.6 31.8" fill="#183FE1"/><rect x="413.4" y="0" width="31.8" height="31.8" fill="#183FE1"/><path d="M 413.4 31.8 A 31.8 31.8 0 0 1  445.2 0 L 445.2 31.8" fill="#132186"/><rect x="381.6" y="31.8" width="31.8" height="31.8" fill="#183FE1"/><path d="M 381.6 63.6 A 31.8 31.8 0 0 0 413.40000000000003 31.8 L 381.6 31.8" fill="#183FE1"/><rect x="413.4" y="31.8" width="31.8" height="31.8" fill="#132186"/><path d="M 413.4 31.8 A 31.8 31.8 0 0 0 445.2 63.6 L 445.2 31.8" fill="#183FE1"/><rect x="445.20000000000005" y="0" width="63.60000000000001" height="63.60000000000001" fill="#ffffff"/><rect x="445.2" y="0" width="31.8" height="31.8" fill="#183FE1"/><path d="M 445.2 0 A 31.8 31.8 0 0 0 477 31.8 L 477 0" fill="#33b8ff"/><rect x="477" y="0" width="31.8" height="31.8" fill="#132186"/><path d="M 477 31.8 A 31.8 31.8 0 0 0 508.8 0 L 477 0" fill="#132186"/><rect x="445.2" y="31.8" width="31.8" height="31.8" fill="#132186"/><path d="M 445.2 63.6 A 31.8 31.8 0 0 1  477 31.8 L 477 63.6" fill="#183FE1"/><rect x="477" y="31.8" width="31.8" height="31.8" fill="#33b8ff"/><path d="M 477 31.8 A 31.8 31.8 0 0 1 508.8 63.6 L 477 63.6" fill="#132186"/><rect x="508.8" y="0" width="63.6" height="63.6" fill="#33b8ff"/><polygon points="508.8,0 572.4,0 508.8,63.6" fill="#132186"/><rect x="572.4000000000001" y="0" width="63.60000000000001" height="63.60000000000001" fill="#ffffff"/><rect x="572.4" y="0" width="31.8" height="31.8" fill="#33b8ff"/><path d="M 572.4 31.8 A 31.8 31.8 0 0 0 604.1999999999999 0 L 572.4 0" fill="#183FE1"/><rect x="604.2" y="0" width="31.8" height="31.8" fill="#132186"/><path d="M 604.2 0 A 31.8 31.8 0 0 0 636 31.8 L 636 0" fill="#132186"/><rect x="572.4" y="31.8" width="31.8" height="31.8" fill="#132186"/><path d="M 572.4 31.8 A 31.8 31.8 0 0 1 604.1999999999999 63.6 L 572.4 63.6" fill="#132186"/><rect x="604.2" y="31.8" width="31.8" height="31.8" fill="#132186"/><path d="M 604.2 63.6 A 31.8 31.8 0 0 1  636 31.8 L 636 63.6" fill="#132186"/><rect x="636.0000000000001" y="0" width="63.60000000000001" height="63.60000000000001" fill="#ffffff"/><rect x="636" y="0" width="31.8" height="31.8" fill="#33b8ff"/><polygon points="667.8,0 667.8,31.8 636,31.8" fill="#183FE1"/><rect x="667.8" y="0" width="31.8" height="31.8" fill="#33b8ff"/><polygon points="667.8,0 699.5999999999999,0 667.8,31.8" fill="#33b8ff"/><rect x="636" y="31.8" width="31.8" height="31.8" fill="#33b8ff"/><polygon points="636,31.8 667.8,31.8 667.8,63.6" fill="#132186"/><rect x="667.8" y="31.8" width="31.8" height="31.8" fill="#132186"/><polygon points="667.8,31.8 699.5999999999999,63.6 667.8,63.6" fill="#183FE1"/><rect x="0" y="63.60000000000001" width="63.60000000000001" height="63.60000000000001" fill="#ffffff"/><rect x="0" y="63.6" width="31.8" height="31.8" fill="#132186"/><path d="M 0 95.4 A 31.8 31.8 0 0 1 31.8 63.6 L 31.8 71.55 A 23.85 23.85 0 0 0 7.95 95.4" fill="#132186"/><rect x="31.8" y="63.6" width="31.8" height="31.8" fill="#132186"/><path d="M 31.8 63.6 A 31.8 31.8 0 0 1 63.6 95.4 L 55.650000000000006 95.4 A 23.85 23.85 0 0 0 31.8 71.55" fill="#33b8ff"/><rect x="0" y="95.4" width="31.8" height="31.8" fill="#183FE1"/><path d="M 0 95.4 A 31.8 31.8 0 0 0 31.8 127.2 L 31.8 119.25 A 23.85 23.85 0 0 1 7.95 95.4" fill="#33b8ff"/><rect x="31.8" y="95.4" width="31.8" height="31.8" fill="#132186"/><path d="M 31.8 127.2 A 31.8 31.8 0 0 0 63.6 95.4 L 55.650000000000006 95.4 A 23.85 23.85 0 0 1 31.8 119.25" fill="#132186"/><rect x="63.60000000000001" y="63.60000000000001" width="63.60000000000001" height="63.60000000000001" fill="#ffffff"/><rect x="63.6" y="63.6" width="31.8" height="31.8" fill="#183FE1"/><path d="M 63.6 95.4 A 31.8 31.8 0 0 1  95.4 63.6 L 95.4 95.4" fill="#183FE1"/><rect x="95.4" y="63.6" width="31.8" height="31.8" fill="#183FE1"/><path d="M 95.4 63.6 A 31.8 31.8 0 0 1 127.2 95.4 L 95.4 95.4" fill="#132186"/><rect x="63.6" y="95.4" width="31.8" height="31.8" fill="#132186"/><path d="M 63.6 95.4 A 31.8 31.8 0 0 0 95.4 127.2 L 95.4 95.4" fill="#132186"/><rect x="95.4" y="95.4" width="31.8" height="31.8" fill="#183FE1"/><path d="M 95.4 127.2 A 31.8 31.8 0 0 0 127.2 95.4 L 95.4 95.4" fill="#183FE1"/><rect x="127.20000000000002" y="63.60000000000001" width="63.60000000000001" height="63.60000000000001" fill="#ffffff"/><rect x="127.2" y="63.6" width="31.8" height="31.8" fill="#183FE1"/><polygon points="159,63.6 159,95.4 127.2,95.4" fill="#33b8ff"/><rect x="159" y="63.6" width="31.8" height="31.8" fill="#183FE1"/><polygon points="159,63.6 190.8,95.4 159,95.4" fill="#33b8ff"/><rect x="127.2" y="95.4" width="31.8" height="31.8" fill="#33b8ff"/><polygon points="127.2,95.4 159,95.4 127.2,127.2" fill="#33b8ff"/><rect x="159" y="95.4" width="31.8" height="31.8" fill="#132186"/><polygon points="159,95.4 190.8,95.4 190.8,127.2" fill="#33b8ff"/><rect x="190.8" y="63.6" width="63.6" height="63.6" fill="#33b8ff"/><path d="M 190.8 63.6 A 63.6 63.6 0 0 1  254.4 127.2 L 190.8 63.6 A 63.6 63.6 0 0 0 254.4 127.2" fill="#33b8ff"/><rect x="254.40000000000003" y="63.60000000000001" width="63.60000000000001" height="63.60000000000001" fill="#ffffff"/><rect x="254.4" y="63.6" width="31.8" height="31.8" fill="#132186"/><polygon points="286.2,63.6 286.2,95.4 254.4,95.4" fill="#183FE1"/><rect x="286.2" y="63.6" width="31.8" height="31.8" fill="#132186"/><polygon points="286.2,63.6 318,95.4 286.2,95.4" fill="#33b8ff"/><rect x="254.4" y="95.4" width="31.8" height="31.8" fill="#132186"/><polygon points="254.4,95.4 286.2,95.4 286.2,127.2" fill="#33b8ff"/><rect x="286.2" y="95.4" width="31.8" height="31.8" fill="#183FE1"/><polygon points="286.2,95.4 318,95.4 286.2,127.2" fill="#132186"/><rect x="318.00000000000006" y="63.60000000000001" width="63.60000000000001" height="63.60000000000001" fill="#ffffff"/><rect x="318" y="63.6" width="31.8" height="31.8" fill="#33b8ff"/><polygon points="349.8,63.6 349.8,95.4 318,95.4" fill="#132186"/><rect x="349.8" y="63.6" width="31.8" height="31.8" fill="#183FE1"/><polygon points="349.8,63.6 381.6,63.6 349.8,95.4" fill="#183FE1"/><rect x="318" y="95.4" width="31.8" height="31.8" fill="#183FE1"/><polygon points="318,95.4 349.8,95.4 349.8,127.2" fill="#33b8ff"/><rect x="349.8" y="95.4" width="31.8" height="31.8" fill="#183FE1"/><polygon points="349.8,95.4 381.6,127.2 349.8,127.2" fill="#33b8ff"/><rect x="381.6" y="63.60000000000001" width="63.60000000000001" height="63.60000000000001" fill="#ffffff"/><rect x="381.6" y="63.6" width="31.8" height="31.8" fill="#33b8ff"/><path d="M 381.6 95.4 A 31.8 31.8 0 0 0 413.40000000000003 63.6 L 381.6 63.6" fill="#132186"/><rect x="413.4" y="63.6" width="31.8" height="31.8" fill="#33b8ff"/><path d="M 413.4 63.6 A 31.8 31.8 0 0 0 445.2 95.4 L 445.2 63.6" fill="#183FE1"/><rect x="381.6" y="95.4" width="31.8" height="31.8" fill="#33b8ff"/><path d="M 381.6 95.4 A 31.8 31.8 0 0 1 413.40000000000003 127.2 L 381.6 127.2" fill="#33b8ff"/><rect x="413.4" y="95.4" width="31.8" height="31.8" fill="#183FE1"/><path d="M 413.4 127.2 A 31.8 31.8 0 0 1  445.2 95.4 L 445.2 127.2" fill="#33b8ff"/><rect x="445.2" y="63.6" width="63.6" height="63.6" fill="#183FE1"/><polygon points="445.2,63.6 508.8,63.6 445.2,127.2" fill="#183FE1"/><rect x="508.80000000000007" y="63.60000000000001" width="63.60000000000001" height="63.60000000000001" fill="#ffffff"/><rect x="508.8" y="63.6" width="31.8" height="31.8" fill="#33b8ff"/><polygon points="540.6,63.6 540.6,95.4 508.8,95.4" fill="#132186"/><rect x="540.6" y="63.6" width="31.8" height="31.8" fill="#33b8ff"/><polygon points="540.6,63.6 572.4,95.4 540.6,95.4" fill="#183FE1"/><rect x="508.8" y="95.4" width="31.8" height="31.8" fill="#132186"/><polygon points="508.8,95.4 540.6,95.4 540.6,127.2" fill="#183FE1"/><rect x="540.6" y="95.4" width="31.8" height="31.8" fill="#33b8ff"/><polygon points="540.6,95.4 572.4,95.4 540.6,127.2" fill="#132186"/><rect x="572.4000000000001" y="63.60000000000001" width="63.60000000000001" height="63.60000000000001" fill="#ffffff"/><rect x="572.4" y="63.6" width="31.8" height="31.8" fill="#132186"/><path d="M 572.4 63.6 A 31.8 31.8 0 0 0 604.1999999999999 95.4 L 604.1999999999999 63.6" fill="#33b8ff"/><rect x="604.2" y="63.6" width="31.8" height="31.8" fill="#183FE1"/><path d="M 604.2 95.4 A 31.8 31.8 0 0 0 636 63.6 L 604.2 63.6" fill="#33b8ff"/><rect x="572.4" y="95.4" width="31.8" height="31.8" fill="#132186"/><path d="M 572.4 127.2 A 31.8 31.8 0 0 1  604.1999999999999 95.4 L 604.1999999999999 127.2" fill="#132186"/><rect x="604.2" y="95.4" width="31.8" height="31.8" fill="#183FE1"/><path d="M 604.2 95.4 A 31.8 31.8 0 0 1 636 127.2 L 604.2 127.2" fill="#132186"/><rect x="636.0000000000001" y="63.60000000000001" width="63.60000000000001" height="63.60000000000001" fill="#ffffff"/><rect x="636" y="63.6" width="31.8" height="31.8" fill="#132186"/><path d="M 636 63.6 A 31.8 31.8 0 0 0 667.8 95.4 L 667.8 63.6" fill="#183FE1"/><rect x="667.8" y="63.6" width="31.8" height="31.8" fill="#33b8ff"/><path d="M 667.8 95.4 A 31.8 31.8 0 0 0 699.5999999999999 63.6 L 667.8 63.6" fill="#33b8ff"/><rect x="636" y="95.4" width="31.8" height="31.8" fill="#183FE1"/><path d="M 636 127.2 A 31.8 31.8 0 0 1  667.8 95.4 L 667.8 127.2" fill="#33b8ff"/><rect x="667.8" y="95.4" width="31.8" height="31.8" fill="#183FE1"/><path d="M 667.8 95.4 A 31.8 31.8 0 0 1 699.5999999999999 127.2 L 667.8 127.2" fill="#183FE1"/><rect x="0" y="127.20000000000002" width="63.60000000000001" height="63.60000000000001" fill="#ffffff"/><rect x="0" y="127.2" width="31.8" height="31.8" fill="#183FE1"/><path d="M 0 159 A 31.8 31.8 0 0 0 31.8 127.2 L 0 127.2" fill="#183FE1"/><rect x="31.8" y="127.2" width="31.8" height="31.8" fill="#33b8ff"/><path d="M 31.8 127.2 A 31.8 31.8 0 0 0 63.6 159 L 63.6 127.2" fill="#132186"/><rect x="0" y="159" width="31.8" height="31.8" fill="#132186"/><path d="M 0 159 A 31.8 31.8 0 0 1 31.8 190.8 L 0 190.8" fill="#132186"/><rect x="31.8" y="159" width="31.8" height="31.8" fill="#183FE1"/><path d="M 31.8 190.8 A 31.8 31.8 0 0 1  63.6 159 L 63.6 190.8" fill="#183FE1"/><rect x="63.60000000000001" y="127.20000000000002" width="63.60000000000001" height="63.60000000000001" fill="#ffffff"/><rect x="63.6" y="127.2" width="31.8" height="31.8" fill="#33b8ff"/><path d="M 63.6 159 A 31.8 31.8 0 0 0 95.4 127.2 L 63.6 127.2" fill="#183FE1"/><rect x="95.4" y="127.2" width="31.8" height="31.8" fill="#33b8ff"/><path d="M 95.4 127.2 A 31.8 31.8 0 0 0 127.2 159 L 127.2 127.2" fill="#33b8ff"/><rect x="63.6" y="159" width="31.8" height="31.8" fill="#132186"/><path d="M 63.6 159 A 31.8 31.8 0 0 1 95.4 190.8 L 63.6 190.8" fill="#132186"/><rect x="95.4" y="159" width="31.8" height="31.8" fill="#183FE1"/><path d="M 95.4 190.8 A 31.8 31.8 0 0 1  127.2 159 L 127.2 190.8" fill="#132186"/><rect x="127.20000000000002" y="127.20000000000002" width="63.60000000000001" height="63.60000000000001" fill="#ffffff"/><rect x="127.2" y="127.2" width="31.8" height="31.8" fill="#183FE1"/><path d="M 127.2 159 A 31.8 31.8 0 0 1 159 127.2 L 159 135.15 A 23.85 23.85 0 0 0 135.15 159" fill="#33b8ff"/><rect x="159" y="127.2" width="31.8" height="31.8" fill="#183FE1"/><path d="M 159 127.2 A 31.8 31.8 0 0 1 190.8 159 L 182.85 159 A 23.85 23.85 0 0 0 159 135.15" fill="#183FE1"/><rect x="127.2" y="159" width="31.8" height="31.8" fill="#132186"/><path d="M 127.2 159 A 31.8 31.8 0 0 0 159 190.8 L 159 182.85 A 23.85 23.85 0 0 1 135.15 159" fill="#132186"/><rect x="159" y="159" width="31.8" height="31.8" fill="#132186"/><path d="M 159 190.8 A 31.8 31.8 0 0 0 190.8 159 L 182.85 159 A 23.85 23.85 0 0 1 159 182.85" fill="#132186"/><rect x="190.8" y="127.2" width="63.6" height="63.6" fill="#183FE1"/><path d="M 190.8 190.8 A 63.6 63.6 0 0 1  254.4 127.2 L 254.4 190.8" fill="#132186"/><rect x="254.4" y="127.2" width="63.6" height="63.6" fill="#183FE1"/><polygon points="318,127.2 318,190.8 254.4,190.8" fill="#132186"/><rect x="318.00000000000006" y="127.20000000000002" width="63.60000000000001" height="63.60000000000001" fill="#ffffff"/><rect x="318" y="127.2" width="31.8" height="31.8" fill="#132186"/><path d="M 318 127.2 A 31.8 31.8 0 0 0 349.8 159 L 349.8 127.2" fill="#33b8ff"/><rect x="349.8" y="127.2" width="31.8" height="31.8" fill="#132186"/><path d="M 349.8 159 A 31.8 31.8 0 0 0 381.6 127.2 L 349.8 127.2" fill="#33b8ff"/><rect x="318" y="159" width="31.8" height="31.8" fill="#33b8ff"/><path d="M 318 190.8 A 31.8 31.8 0 0 1  349.8 159 L 349.8 190.8" fill="#132186"/><rect x="349.8" y="159" width="31.8" height="31.8" fill="#33b8ff"/><path d="M 349.8 159 A 31.8 31.8 0 0 1 381.6 190.8 L 349.8 190.8" fill="#132186"/><rect x="381.6" y="127.2" width="63.6" height="63.6" fill="#183FE1"/><rect x="381.6" y="127.2" width="63.6" height="63.6" fill="#33b8ff"/><rect x="445.20000000000005" y="127.20000000000002" width="63.60000000000001" height="63.60000000000001" fill="#ffffff"/><rect x="445.2" y="127.2" width="31.8" height="31.8" fill="#132186"/><path d="M 445.2 127.2 A 31.8 31.8 0 0 0 477 159 L 477 127.2" fill="#132186"/><rect x="477" y="127.2" width="31.8" height="31.8" fill="#183FE1"/><path d="M 477 159 A 31.8 31.8 0 0 0 508.8 127.2 L 477 127.2" fill="#132186"/><rect x="445.2" y="159" width="31.8" height="31.8" fill="#183FE1"/><path d="M 445.2 190.8 A 31.8 31.8 0 0 1  477 159 L 477 190.8" fill="#132186"/><rect x="477" y="159" width="31.8" height="31.8" fill="#132186"/><path d="M 477 159 A 31.8 31.8 0 0 1 508.8 190.8 L 477 190.8" fill="#132186"/><rect x="508.80000000000007" y="127.20000000000002" width="63.60000000000001" height="63.60000000000001" fill="#ffffff"/><rect x="508.8" y="127.2" width="31.8" height="31.8" fill="#183FE1"/><polygon points="540.6,127.2 540.6,159 508.8,159" fill="#33b8ff"/><rect x="540.6" y="127.2" width="31.8" height="31.8" fill="#183FE1"/><polygon points="540.6,127.2 572.4,127.2 540.6,159" fill="#33b8ff"/><rect x="508.8" y="159" width="31.8" height="31.8" fill="#33b8ff"/><polygon points="508.8,159 540.6,159 540.6,190.8" fill="#33b8ff"/><rect x="540.6" y="159" width="31.8" height="31.8" fill="#132186"/><polygon points="540.6,159 572.4,190.8 540.6,190.8" fill="#183FE1"/><rect x="572.4" y="127.2" width="63.6" height="63.6" fill="#33b8ff"/><path d="M 572.4 190.8 A 63.6 63.6 0 0 1  636 127.2 L 636 190.8" fill="#33b8ff"/><rect x="636.0000000000001" y="127.20000000000002" width="63.60000000000001" height="63.60000000000001" fill="#ffffff"/><rect x="636" y="127.2" width="31.8" height="31.8" fill="#132186"/><circle cx="651.9" cy="143.1" r="15.9" fill="#33b8ff"/><rect x="667.8" y="127.2" width="31.8" height="31.8" fill="#33b8ff"/><rect x="667.8" y="127.2" width="31.8" height="31.8" fill="#132186"/><rect x="636" y="159" width="31.8" height="31.8" fill="#132186"/><circle cx="651.9" cy="174.9" r="15.9" fill="#132186"/><rect x="667.8" y="159" width="31.8" height="31.8" fill="#183FE1"/><rect x="667.8" y="159" width="31.8" height="31.8" fill="#132186"/><rect x="0" y="190.8" width="63.60000000000001" height="63.60000000000001" fill="#ffffff"/><rect x="0" y="190.8" width="31.8" height="31.8" fill="#33b8ff"/><path d="M 0 222.60000000000002 A 31.8 31.8 0 0 1  31.8 190.8 L 31.8 222.60000000000002" fill="#183FE1"/><rect x="31.8" y="190.8" width="31.8" height="31.8" fill="#183FE1"/><path d="M 31.8 190.8 A 31.8 31.8 0 0 1 63.6 222.60000000000002 L 31.8 222.60000000000002" fill="#183FE1"/><rect x="0" y="222.6" width="31.8" height="31.8" fill="#33b8ff"/><path d="M 0 222.6 A 31.8 31.8 0 0 0 31.8 254.4 L 31.8 222.6" fill="#183FE1"/><rect x="31.8" y="222.6" width="31.8" height="31.8" fill="#183FE1"/><path d="M 31.8 254.4 A 31.8 31.8 0 0 0 63.6 222.6 L 31.8 222.6" fill="#33b8ff"/><rect x="63.6" y="190.8" width="63.6" height="63.6" fill="#132186"/><path d="M 63.6 190.8 A 63.6 63.6 0 0 1 127.2 254.4 L 63.6 254.4" fill="#132186"/><rect x="127.20000000000002" y="190.8" width="63.60000000000001" height="63.60000000000001" fill="#ffffff"/><rect x="127.2" y="190.8" width="31.8" height="31.8" fill="#33b8ff"/><path d="M 127.2 190.8 A 31.8 31.8 0 0 0 159 222.60000000000002 L 159 190.8" fill="#132186"/><rect x="159" y="190.8" width="31.8" height="31.8" fill="#183FE1"/><path d="M 159 222.60000000000002 A 31.8 31.8 0 0 0 190.8 190.8 L 159 190.8" fill="#132186"/><rect x="127.2" y="222.6" width="31.8" height="31.8" fill="#132186"/><path d="M 127.2 254.4 A 31.8 31.8 0 0 1  159 222.6 L 159 254.4" fill="#183FE1"/><rect x="159" y="222.6" width="31.8" height="31.8" fill="#132186"/><path d="M 159 222.6 A 31.8 31.8 0 0 1 190.8 254.4 L 159 254.4" fill="#33b8ff"/><rect x="190.8" y="190.8" width="63.60000000000001" height="63.60000000000001" fill="#ffffff"/><rect x="190.8" y="190.8" width="31.8" height="31.8" fill="#33b8ff"/><path d="M 190.8 190.8 A 31.8 31.8 0 0 0 222.60000000000002 222.60000000000002 L 222.60000000000002 190.8" fill="#132186"/><rect x="222.6" y="190.8" width="31.8" height="31.8" fill="#132186"/><path d="M 222.6 222.60000000000002 A 31.8 31.8 0 0 0 254.4 190.8 L 222.6 190.8" fill="#183FE1"/><rect x="190.8" y="222.6" width="31.8" height="31.8" fill="#132186"/><path d="M 190.8 254.4 A 31.8 31.8 0 0 1  222.60000000000002 222.6 L 222.60000000000002 254.4" fill="#183FE1"/><rect x="222.6" y="222.6" width="31.8" height="31.8" fill="#132186"/><path d="M 222.6 222.6 A 31.8 31.8 0 0 1 254.4 254.4 L 222.6 254.4" fill="#33b8ff"/><rect x="254.4" y="190.8" width="63.6" height="63.6" fill="#132186"/><polygon points="254.4,190.8 318,254.4 254.4,254.4" fill="#33b8ff"/><rect x="318.00000000000006" y="190.8" width="63.60000000000001" height="63.60000000000001" fill="#ffffff"/><rect x="318" y="190.8" width="31.8" height="31.8" fill="#132186"/><polygon points="349.8,190.8 349.8,222.60000000000002 318,222.60000000000002" fill="#132186"/><rect x="349.8" y="190.8" width="31.8" height="31.8" fill="#33b8ff"/><polygon points="349.8,190.8 381.6,222.60000000000002 349.8,222.60000000000002" fill="#183FE1"/><rect x="318" y="222.6" width="31.8" height="31.8" fill="#33b8ff"/><polygon points="318,222.6 349.8,222.6 318,254.4" fill="#183FE1"/><rect x="349.8" y="222.6" width="31.8" height="31.8" fill="#33b8ff"/><polygon points="349.8,222.6 381.6,222.6 381.6,254.4" fill="#33b8ff"/><rect x="381.6" y="190.8" width="63.60000000000001" height="63.60000000000001" fill="#ffffff"/><rect x="381.6" y="190.8" width="31.8" height="31.8" fill="#132186"/><polygon points="413.40000000000003,190.8 413.40000000000003,222.60000000000002 381.6,222.60000000000002" fill="#183FE1"/><rect x="413.4" y="190.8" width="31.8" height="31.8" fill="#183FE1"/><polygon points="413.4,190.8 445.2,222.60000000000002 413.4,222.60000000000002" fill="#33b8ff"/><rect x="381.6" y="222.6" width="31.8" height="31.8" fill="#183FE1"/><polygon points="381.6,222.6 413.40000000000003,222.6 413.40000000000003,254.4" fill="#33b8ff"/><rect x="413.4" y="222.6" width="31.8" height="31.8" fill="#132186"/><polygon points="413.4,222.6 445.2,222.6 413.4,254.4" fill="#183FE1"/><rect x="445.20000000000005" y="190.8" width="63.60000000000001" height="63.60000000000001" fill="#ffffff"/><rect x="445.2" y="190.8" width="31.8" height="31.8" fill="#132186"/><path d="M 445.2 222.60000000000002 A 31.8 31.8 0 0 1 477 190.8 L 477 198.75 A 23.85 23.85 0 0 0 453.15 222.60000000000002" fill="#132186"/><rect x="477" y="190.8" width="31.8" height="31.8" fill="#33b8ff"/><path d="M 477 190.8 A 31.8 31.8 0 0 1 508.8 222.60000000000002 L 500.85 222.60000000000002 A 23.85 23.85 0 0 0 477 198.75" fill="#33b8ff"/><rect x="445.2" y="222.6" width="31.8" height="31.8" fill="#33b8ff"/><path d="M 445.2 222.6 A 31.8 31.8 0 0 0 477 254.4 L 477 246.45 A 23.85 23.85 0 0 1 453.15 222.6" fill="#132186"/><rect x="477" y="222.6" width="31.8" height="31.8" fill="#33b8ff"/><path d="M 477 254.4 A 31.8 31.8 0 0 0 508.8 222.6 L 500.85 222.6 A 23.85 23.85 0 0 1 477 246.45" fill="#132186"/><rect x="508.8" y="190.8" width="63.6" height="63.6" fill="#132186"/><path d="M 508.8 190.8 A 63.6 63.6 0 0 0 572.4 254.4 L 572.4 190.8" fill="#132186"/><rect x="572.4000000000001" y="190.8" width="63.60000000000001" height="63.60000000000001" fill="#ffffff"/><rect x="572.4" y="190.8" width="31.8" height="31.8" fill="#33b8ff"/><path d="M 572.4 222.60000000000002 A 31.8 31.8 0 0 1  604.1999999999999 190.8 L 604.1999999999999 222.60000000000002" fill="#132186"/><rect x="604.2" y="190.8" width="31.8" height="31.8" fill="#132186"/><path d="M 604.2 190.8 A 31.8 31.8 0 0 1 636 222.60000000000002 L 604.2 222.60000000000002" fill="#132186"/><rect x="572.4" y="222.6" width="31.8" height="31.8" fill="#33b8ff"/><path d="M 572.4 222.6 A 31.8 31.8 0 0 0 604.1999999999999 254.4 L 604.1999999999999 222.6" fill="#183FE1"/><rect x="604.2" y="222.6" width="31.8" height="31.8" fill="#132186"/><path d="M 604.2 254.4 A 31.8 31.8 0 0 0 636 222.6 L 604.2 222.6" fill="#132186"/><rect x="636" y="190.8" width="63.6" height="63.6" fill="#33b8ff"/><polygon points="636,190.8 699.6,190.8 699.6,254.4" fill="#33b8ff"/><rect x="0" y="254.4" width="63.6" height="63.6" fill="#33b8ff"/><rect x="0" y="254.4" width="63.6" height="63.6" fill="#132186"/><rect x="63.6" y="254.4" width="63.6" height="63.6" fill="#183FE1"/><polygon points="63.6,254.4 127.2,254.4 127.2,318" fill="#33b8ff"/><rect x="127.20000000000002" y="254.40000000000003" width="63.60000000000001" height="63.60000000000001" fill="#ffffff"/><rect x="127.2" y="254.4" width="31.8" height="31.8" fill="#132186"/><path d="M 127.2 286.2 A 31.8 31.8 0 0 1  159 254.4 L 159 286.2" fill="#132186"/><rect x="159" y="254.4" width="31.8" height="31.8" fill="#183FE1"/><path d="M 159 254.4 A 31.8 31.8 0 0 1 190.8 286.2 L 159 286.2" fill="#33b8ff"/><rect x="127.2" y="286.2" width="31.8" height="31.8" fill="#132186"/><path d="M 127.2 286.2 A 31.8 31.8 0 0 0 159 318 L 159 286.2" fill="#183FE1"/><rect x="159" y="286.2" width="31.8" height="31.8" fill="#132186"/><path d="M 159 318 A 31.8 31.8 0 0 0 190.8 286.2 L 159 286.2" fill="#183FE1"/><rect x="190.8" y="254.40000000000003" width="63.60000000000001" height="63.60000000000001" fill="#ffffff"/><rect x="190.8" y="254.4" width="31.8" height="31.8" fill="#132186"/><path d="M 190.8 286.2 A 31.8 31.8 0 0 1  222.60000000000002 254.4 L 222.60000000000002 286.2" fill="#183FE1"/><rect x="222.6" y="254.4" width="31.8" height="31.8" fill="#33b8ff"/><path d="M 222.6 254.4 A 31.8 31.8 0 0 1 254.4 286.2 L 222.6 286.2" fill="#183FE1"/><rect x="190.8" y="286.2" width="31.8" height="31.8" fill="#183FE1"/><path d="M 190.8 286.2 A 31.8 31.8 0 0 0 222.60000000000002 318 L 222.60000000000002 286.2" fill="#132186"/><rect x="222.6" y="286.2" width="31.8" height="31.8" fill="#132186"/><path d="M 222.6 318 A 31.8 31.8 0 0 0 254.4 286.2 L 222.6 286.2" fill="#183FE1"/><rect x="254.40000000000003" y="254.40000000000003" width="63.60000000000001" height="63.60000000000001" fill="#ffffff"/><rect x="254.4" y="254.4" width="31.8" height="31.8" fill="#33b8ff"/><polygon points="286.2,254.4 286.2,286.2 254.4,286.2" fill="#183FE1"/><rect x="286.2" y="254.4" width="31.8" height="31.8" fill="#132186"/><polygon points="286.2,254.4 318,286.2 286.2,286.2" fill="#33b8ff"/><rect x="254.4" y="286.2" width="31.8" height="31.8" fill="#132186"/><polygon points="254.4,286.2 286.2,286.2 254.4,318" fill="#33b8ff"/><rect x="286.2" y="286.2" width="31.8" height="31.8" fill="#33b8ff"/><polygon points="286.2,286.2 318,286.2 318,318" fill="#183FE1"/><rect x="318" y="254.4" width="63.6" height="63.6" fill="#33b8ff"/><rect x="318" y="254.4" width="63.6" height="63.6" fill="#132186"/><rect x="381.6" y="254.4" width="63.6" height="63.6" fill="#132186"/><polygon points="445.20000000000005,254.4 445.20000000000005,318 381.6,318" fill="#132186"/><rect x="445.20000000000005" y="254.40000000000003" width="63.60000000000001" height="63.60000000000001" fill="#ffffff"/><rect x="445.2" y="254.4" width="31.8" height="31.8" fill="#132186"/><polygon points="477,254.4 477,286.2 445.2,286.2" fill="#132186"/><rect x="477" y="254.4" width="31.8" height="31.8" fill="#183FE1"/><polygon points="477,254.4 508.8,286.2 477,286.2" fill="#33b8ff"/><rect x="445.2" y="286.2" width="31.8" height="31.8" fill="#183FE1"/><polygon points="445.2,286.2 477,286.2 445.2,318" fill="#183FE1"/><rect x="477" y="286.2" width="31.8" height="31.8" fill="#33b8ff"/><polygon points="477,286.2 508.8,286.2 508.8,318" fill="#183FE1"/><rect x="508.80000000000007" y="254.40000000000003" width="63.60000000000001" height="63.60000000000001" fill="#ffffff"/><rect x="508.8" y="254.4" width="31.8" height="31.8" fill="#132186"/><polygon points="540.6,254.4 540.6,286.2 508.8,286.2" fill="#183FE1"/><rect x="540.6" y="254.4" width="31.8" height="31.8" fill="#183FE1"/><polygon points="540.6,254.4 572.4,254.4 540.6,286.2" fill="#183FE1"/><rect x="508.8" y="286.2" width="31.8" height="31.8" fill="#183FE1"/><polygon points="508.8,286.2 540.6,286.2 540.6,318" fill="#33b8ff"/><rect x="540.6" y="286.2" width="31.8" height="31.8" fill="#132186"/><polygon points="540.6,286.2 572.4,318 540.6,318" fill="#132186"/><rect x="572.4" y="254.4" width="63.6" height="63.6" fill="#132186"/><path d="M 572.4 318 A 63.6 63.6 0 0 1  636 254.4 L 572.4 318 A 63.6 63.6 0 0 0 636 254.4" fill="#33b8ff"/><rect x="636" y="254.4" width="63.6" height="63.6" fill="#183FE1"/><rect x="636" y="254.4" width="63.6" height="63.6" fill="#132186"/><rect x="0" y="318.00000000000006" width="63.60000000000001" height="63.60000000000001" fill="#ffffff"/><rect x="0" y="318" width="31.8" height="31.8" fill="#132186"/><path d="M 0 349.8 A 31.8 31.8 0 0 1  31.8 318 L 31.8 349.8" fill="#183FE1"/><rect x="31.8" y="318" width="31.8" height="31.8" fill="#33b8ff"/><path d="M 31.8 318 A 31.8 31.8 0 0 1 63.6 349.8 L 31.8 349.8" fill="#183FE1"/><rect x="0" y="349.8" width="31.8" height="31.8" fill="#132186"/><path d="M 0 349.8 A 31.8 31.8 0 0 0 31.8 381.6 L 31.8 349.8" fill="#132186"/><rect x="31.8" y="349.8" width="31.8" height="31.8" fill="#33b8ff"/><path d="M 31.8 381.6 A 31.8 31.8 0 0 0 63.6 349.8 L 31.8 349.8" fill="#33b8ff"/><rect x="63.60000000000001" y="318.00000000000006" width="63.60000000000001" height="63.60000000000001" fill="#ffffff"/><rect x="63.6" y="318" width="31.8" height="31.8" fill="#33b8ff"/><polygon points="95.4,318 95.4,349.8 63.6,349.8" fill="#33b8ff"/><rect x="95.4" y="318" width="31.8" height="31.8" fill="#183FE1"/><polygon points="95.4,318 127.2,349.8 95.4,349.8" fill="#132186"/><rect x="63.6" y="349.8" width="31.8" height="31.8" fill="#183FE1"/><polygon points="63.6,349.8 95.4,349.8 63.6,381.6" fill="#132186"/><rect x="95.4" y="349.8" width="31.8" height="31.8" fill="#132186"/><polygon points="95.4,349.8 127.2,349.8 127.2,381.6" fill="#132186"/><rect x="127.20000000000002" y="318.00000000000006" width="63.60000000000001" height="63.60000000000001" fill="#ffffff"/><rect x="127.2" y="318" width="31.8" height="31.8" fill="#132186"/><polygon points="159,318 159,349.8 127.2,349.8" fill="#132186"/><rect x="159" y="318" width="31.8" height="31.8" fill="#132186"/><polygon points="159,318 190.8,349.8 159,349.8" fill="#183FE1"/><rect x="127.2" y="349.8" width="31.8" height="31.8" fill="#33b8ff"/><polygon points="127.2,349.8 159,349.8 127.2,381.6" fill="#183FE1"/><rect x="159" y="349.8" width="31.8" height="31.8" fill="#183FE1"/><polygon points="159,349.8 190.8,349.8 190.8,381.6" fill="#132186"/><rect x="190.8" y="318.00000000000006" width="63.60000000000001" height="63.60000000000001" fill="#ffffff"/><rect x="190.8" y="318" width="31.8" height="31.8" fill="#132186"/><path d="M 190.8 318 A 31.8 31.8 0 0 1 222.60000000000002 349.8 L 190.8 349.8" fill="#33b8ff"/><rect x="222.6" y="318" width="31.8" height="31.8" fill="#132186"/><path d="M 222.6 349.8 A 31.8 31.8 0 0 1  254.4 318 L 254.4 349.8" fill="#183FE1"/><rect x="190.8" y="349.8" width="31.8" height="31.8" fill="#132186"/><path d="M 190.8 381.6 A 31.8 31.8 0 0 0 222.60000000000002 349.8 L 190.8 349.8" fill="#183FE1"/><rect x="222.6" y="349.8" width="31.8" height="31.8" fill="#183FE1"/><path d="M 222.6 349.8 A 31.8 31.8 0 0 0 254.4 381.6 L 254.4 349.8" fill="#183FE1"/><rect x="254.40000000000003" y="318.00000000000006" width="63.60000000000001" height="63.60000000000001" fill="#ffffff"/><rect x="254.4" y="318" width="31.8" height="31.8" fill="#33b8ff"/><polygon points="286.2,318 286.2,349.8 254.4,349.8" fill="#33b8ff"/><rect x="286.2" y="318" width="31.8" height="31.8" fill="#33b8ff"/><polygon points="286.2,318 318,318 286.2,349.8" fill="#33b8ff"/><rect x="254.4" y="349.8" width="31.8" height="31.8" fill="#183FE1"/><polygon points="254.4,349.8 286.2,349.8 286.2,381.6" fill="#183FE1"/><rect x="286.2" y="349.8" width="31.8" height="31.8" fill="#33b8ff"/><polygon points="286.2,349.8 318,381.6 286.2,381.6" fill="#33b8ff"/><rect x="318.00000000000006" y="318.00000000000006" width="63.60000000000001" height="63.60000000000001" fill="#ffffff"/><rect x="318" y="318" width="31.8" height="31.8" fill="#33b8ff"/><circle cx="333.9" cy="333.9" r="15.9" fill="#132186"/><rect x="349.8" y="318" width="31.8" height="31.8" fill="#183FE1"/><rect x="349.8" y="318" width="31.8" height="31.8" fill="#183FE1"/><rect x="318" y="349.8" width="31.8" height="31.8" fill="#183FE1"/><circle cx="333.9" cy="365.7" r="15.9" fill="#132186"/><rect x="349.8" y="349.8" width="31.8" height="31.8" fill="#132186"/><rect x="349.8" y="349.8" width="31.8" height="31.8" fill="#183FE1"/><rect x="381.6" y="318.00000000000006" width="63.60000000000001" height="63.60000000000001" fill="#ffffff"/><rect x="381.6" y="318" width="31.8" height="31.8" fill="#33b8ff"/><path d="M 381.6 349.8 A 31.8 31.8 0 0 0 413.40000000000003 318 L 381.6 318" fill="#183FE1"/><rect x="413.4" y="318" width="31.8" height="31.8" fill="#33b8ff"/><path d="M 413.4 318 A 31.8 31.8 0 0 0 445.2 349.8 L 445.2 318" fill="#183FE1"/><rect x="381.6" y="349.8" width="31.8" height="31.8" fill="#33b8ff"/><path d="M 381.6 349.8 A 31.8 31.8 0 0 1 413.40000000000003 381.6 L 381.6 381.6" fill="#132186"/><rect x="413.4" y="349.8" width="31.8" height="31.8" fill="#33b8ff"/><path d="M 413.4 381.6 A 31.8 31.8 0 0 1  445.2 349.8 L 445.2 381.6" fill="#183FE1"/><rect x="445.20000000000005" y="318.00000000000006" width="63.60000000000001" height="63.60000000000001" fill="#ffffff"/><rect x="445.2" y="318" width="31.8" height="31.8" fill="#33b8ff"/><path d="M 445.2 318 A 31.8 31.8 0 0 1 477 349.8 L 445.2 349.8" fill="#183FE1"/><rect x="477" y="318" width="31.8" height="31.8" fill="#132186"/><path d="M 477 349.8 A 31.8 31.8 0 0 1  508.8 318 L 508.8 349.8" fill="#183FE1"/><rect x="445.2" y="349.8" width="31.8" height="31.8" fill="#132186"/><path d="M 445.2 381.6 A 31.8 31.8 0 0 0 477 349.8 L 445.2 349.8" fill="#183FE1"/><rect x="477" y="349.8" width="31.8" height="31.8" fill="#33b8ff"/><path d="M 477 349.8 A 31.8 31.8 0 0 0 508.8 381.6 L 508.8 349.8" fill="#132186"/><rect x="508.80000000000007" y="318.00000000000006" width="63.60000000000001" height="63.60000000000001" fill="#ffffff"/><rect x="508.8" y="318" width="31.8" height="31.8" fill="#183FE1"/><polygon points="540.6,318 540.6,349.8 508.8,349.8" fill="#183FE1"/><rect x="540.6" y="318" width="31.8" height="31.8" fill="#33b8ff"/><polygon points="540.6,318 572.4,349.8 540.6,349.8" fill="#183FE1"/><rect x="508.8" y="349.8" width="31.8" height="31.8" fill="#33b8ff"/><polygon points="508.8,349.8 540.6,349.8 540.6,381.6" fill="#33b8ff"/><rect x="540.6" y="349.8" width="31.8" height="31.8" fill="#132186"/><polygon points="540.6,349.8 572.4,349.8 540.6,381.6" fill="#183FE1"/><rect x="572.4" y="318" width="63.6" height="63.6" fill="#33b8ff"/><path d="M 572.4 381.6 A 63.6 63.6 0 0 1  636 318 L 636 381.6" fill="#33b8ff"/><rect x="636.0000000000001" y="318.00000000000006" width="63.60000000000001" height="63.60000000000001" fill="#ffffff"/><rect x="636" y="318" width="31.8" height="31.8" fill="#132186"/><path d="M 636 349.8 A 31.8 31.8 0 0 0 667.8 318 L 636 318" fill="#132186"/><rect x="667.8" y="318" width="31.8" height="31.8" fill="#183FE1"/><path d="M 667.8 318 A 31.8 31.8 0 0 0 699.5999999999999 349.8 L 699.5999999999999 318" fill="#33b8ff"/><rect x="636" y="349.8" width="31.8" height="31.8" fill="#33b8ff"/><path d="M 636 349.8 A 31.8 31.8 0 0 1 667.8 381.6 L 636 381.6" fill="#33b8ff"/><rect x="667.8" y="349.8" width="31.8" height="31.8" fill="#33b8ff"/><path d="M 667.8 381.6 A 31.8 31.8 0 0 1  699.5999999999999 349.8 L 699.5999999999999 381.6" fill="#183FE1"/><rect x="0" y="381.6" width="63.6" height="63.6" fill="#132186"/><rect x="0" y="381.6" width="63.6" height="63.6" fill="#183FE1"/><rect x="63.6" y="381.6" width="63.6" height="63.6" fill="#183FE1"/><path d="M 63.6 445.20000000000005 A 63.6 63.6 0 0 0 127.2 381.6 L 63.6 381.6" fill="#33b8ff"/><rect x="127.20000000000002" y="381.6" width="63.60000000000001" height="63.60000000000001" fill="#ffffff"/><rect x="127.2" y="381.6" width="31.8" height="31.8" fill="#132186"/><polygon points="159,381.6 159,413.40000000000003 127.2,413.40000000000003" fill="#132186"/><rect x="159" y="381.6" width="31.8" height="31.8" fill="#132186"/><polygon points="159,381.6 190.8,381.6 159,413.40000000000003" fill="#33b8ff"/><rect x="127.2" y="413.4" width="31.8" height="31.8" fill="#132186"/><polygon points="127.2,413.4 159,413.4 159,445.2" fill="#183FE1"/><rect x="159" y="413.4" width="31.8" height="31.8" fill="#132186"/><polygon points="159,413.4 190.8,445.2 159,445.2" fill="#33b8ff"/><rect x="190.8" y="381.6" width="63.60000000000001" height="63.60000000000001" fill="#ffffff"/><rect x="190.8" y="381.6" width="31.8" height="31.8" fill="#183FE1"/><polygon points="222.60000000000002,381.6 222.60000000000002,413.40000000000003 190.8,413.40000000000003" fill="#33b8ff"/><rect x="222.6" y="381.6" width="31.8" height="31.8" fill="#33b8ff"/><polygon points="222.6,381.6 254.4,413.40000000000003 222.6,413.40000000000003" fill="#183FE1"/><rect x="190.8" y="413.4" width="31.8" height="31.8" fill="#132186"/><polygon points="190.8,413.4 222.60000000000002,413.4 190.8,445.2" fill="#33b8ff"/><rect x="222.6" y="413.4" width="31.8" height="31.8" fill="#132186"/><polygon points="222.6,413.4 254.4,413.4 254.4,445.2" fill="#132186"/><rect x="254.40000000000003" y="381.6" width="63.60000000000001" height="63.60000000000001" fill="#ffffff"/><rect x="254.4" y="381.6" width="31.8" height="31.8" fill="#183FE1"/><path d="M 254.4 413.40000000000003 A 31.8 31.8 0 0 1 286.2 381.6 L 286.2 389.55 A 23.85 23.85 0 0 0 262.35 413.40000000000003" fill="#33b8ff"/><rect x="286.2" y="381.6" width="31.8" height="31.8" fill="#33b8ff"/><path d="M 286.2 381.6 A 31.8 31.8 0 0 1 318 413.40000000000003 L 310.05 413.40000000000003 A 23.85 23.85 0 0 0 286.2 389.55" fill="#183FE1"/><rect x="254.4" y="413.4" width="31.8" height="31.8" fill="#33b8ff"/><path d="M 254.4 413.4 A 31.8 31.8 0 0 0 286.2 445.2 L 286.2 437.25 A 23.85 23.85 0 0 1 262.35 413.4" fill="#132186"/><rect x="286.2" y="413.4" width="31.8" height="31.8" fill="#183FE1"/><path d="M 286.2 445.2 A 31.8 31.8 0 0 0 318 413.4 L 310.05 413.4 A 23.85 23.85 0 0 1 286.2 437.25" fill="#132186"/><rect x="318.00000000000006" y="381.6" width="63.60000000000001" height="63.60000000000001" fill="#ffffff"/><rect x="318" y="381.6" width="31.8" height="31.8" fill="#132186"/><path d="M 318 381.6 A 31.8 31.8 0 0 0 349.8 413.40000000000003 L 349.8 381.6" fill="#183FE1"/><rect x="349.8" y="381.6" width="31.8" height="31.8" fill="#33b8ff"/><path d="M 349.8 413.40000000000003 A 31.8 31.8 0 0 0 381.6 381.6 L 349.8 381.6" fill="#183FE1"/><rect x="318" y="413.4" width="31.8" height="31.8" fill="#183FE1"/><path d="M 318 445.2 A 31.8 31.8 0 0 1  349.8 413.4 L 349.8 445.2" fill="#183FE1"/><rect x="349.8" y="413.4" width="31.8" height="31.8" fill="#183FE1"/><path d="M 349.8 413.4 A 31.8 31.8 0 0 1 381.6 445.2 L 349.8 445.2" fill="#33b8ff"/><rect x="381.6" y="381.6" width="63.60000000000001" height="63.60000000000001" fill="#ffffff"/><rect x="381.6" y="381.6" width="31.8" height="31.8" fill="#183FE1"/><path d="M 381.6 413.40000000000003 A 31.8 31.8 0 0 1 413.40000000000003 381.6 L 413.40000000000003 389.55 A 23.85 23.85 0 0 0 389.55 413.40000000000003" fill="#33b8ff"/><rect x="413.4" y="381.6" width="31.8" height="31.8" fill="#33b8ff"/><path d="M 413.4 381.6 A 31.8 31.8 0 0 1 445.2 413.40000000000003 L 437.25 413.40000000000003 A 23.85 23.85 0 0 0 413.4 389.55" fill="#132186"/><rect x="381.6" y="413.4" width="31.8" height="31.8" fill="#132186"/><path d="M 381.6 413.4 A 31.8 31.8 0 0 0 413.40000000000003 445.2 L 413.40000000000003 437.25 A 23.85 23.85 0 0 1 389.55 413.4" fill="#33b8ff"/><rect x="413.4" y="413.4" width="31.8" height="31.8" fill="#33b8ff"/><path d="M 413.4 445.2 A 31.8 31.8 0 0 0 445.2 413.4 L 437.25 413.4 A 23.85 23.85 0 0 1 413.4 437.25" fill="#132186"/><rect x="445.20000000000005" y="381.6" width="63.60000000000001" height="63.60000000000001" fill="#ffffff"/><rect x="445.2" y="381.6" width="31.8" height="31.8" fill="#132186"/><polygon points="477,381.6 477,413.40000000000003 445.2,413.40000000000003" fill="#183FE1"/><rect x="477" y="381.6" width="31.8" height="31.8" fill="#183FE1"/><polygon points="477,381.6 508.8,413.40000000000003 477,413.40000000000003" fill="#33b8ff"/><rect x="445.2" y="413.4" width="31.8" height="31.8" fill="#183FE1"/><polygon points="445.2,413.4 477,413.4 477,445.2" fill="#183FE1"/><rect x="477" y="413.4" width="31.8" height="31.8" fill="#33b8ff"/><polygon points="477,413.4 508.8,413.4 477,445.2" fill="#33b8ff"/><rect x="508.80000000000007" y="381.6" width="63.60000000000001" height="63.60000000000001" fill="#ffffff"/><rect x="508.8" y="381.6" width="31.8" height="31.8" fill="#33b8ff"/><path d="M 508.8 413.40000000000003 A 31.8 31.8 0 0 1  540.6 381.6 L 540.6 413.40000000000003" fill="#33b8ff"/><rect x="540.6" y="381.6" width="31.8" height="31.8" fill="#183FE1"/><path d="M 540.6 381.6 A 31.8 31.8 0 0 1 572.4 413.40000000000003 L 540.6 413.40000000000003" fill="#183FE1"/><rect x="508.8" y="413.4" width="31.8" height="31.8" fill="#33b8ff"/><path d="M 508.8 413.4 A 31.8 31.8 0 0 0 540.6 445.2 L 540.6 413.4" fill="#132186"/><rect x="540.6" y="413.4" width="31.8" height="31.8" fill="#33b8ff"/><path d="M 540.6 445.2 A 31.8 31.8 0 0 0 572.4 413.4 L 540.6 413.4" fill="#33b8ff"/><rect x="572.4000000000001" y="381.6" width="63.60000000000001" height="63.60000000000001" fill="#ffffff"/><rect x="572.4" y="381.6" width="31.8" height="31.8" fill="#132186"/><path d="M 572.4 413.40000000000003 A 31.8 31.8 0 0 0 604.1999999999999 381.6 L 572.4 381.6" fill="#33b8ff"/><rect x="604.2" y="381.6" width="31.8" height="31.8" fill="#132186"/><path d="M 604.2 381.6 A 31.8 31.8 0 0 0 636 413.40000000000003 L 636 381.6" fill="#183FE1"/><rect x="572.4" y="413.4" width="31.8" height="31.8" fill="#132186"/><path d="M 572.4 413.4 A 31.8 31.8 0 0 1 604.1999999999999 445.2 L 572.4 445.2" fill="#183FE1"/><rect x="604.2" y="413.4" width="31.8" height="31.8" fill="#33b8ff"/><path d="M 604.2 445.2 A 31.8 31.8 0 0 1  636 413.4 L 636 445.2" fill="#183FE1"/><rect x="636.0000000000001" y="381.6" width="63.60000000000001" height="63.60000000000001" fill="#ffffff"/><rect x="636" y="381.6" width="31.8" height="31.8" fill="#183FE1"/><polygon points="667.8,381.6 667.8,413.40000000000003 636,413.40000000000003" fill="#33b8ff"/><rect x="667.8" y="381.6" width="31.8" height="31.8" fill="#132186"/><polygon points="667.8,381.6 699.5999999999999,413.40000000000003 667.8,413.40000000000003" fill="#132186"/><rect x="636" y="413.4" width="31.8" height="31.8" fill="#183FE1"/><polygon points="636,413.4 667.8,413.4 667.8,445.2" fill="#183FE1"/><rect x="667.8" y="413.4" width="31.8" height="31.8" fill="#132186"/><polygon points="667.8,413.4 699.5999999999999,413.4 667.8,445.2" fill="#33b8ff"/></g></svg>