<svg width="328" height="209" viewBox="0 0 328 209" fill="none" xmlns="http://www.w3.org/2000/svg">
<path d="M296.107 10.5976H213.027V33.9248H296.435L296.107 10.5976ZM278.573 171.076C272.271 175.292 264.828 177.431 257.271 177.197C252.268 177.723 247.212 177.202 242.419 175.665C237.625 174.127 233.198 171.608 229.413 168.263C222.416 160.254 218.774 149.814 219.254 139.145H327.733C328.515 128.037 327.575 116.873 324.948 106.057C322.406 95.7671 317.957 86.0558 311.838 77.4359C305.679 69.0745 297.723 62.2304 288.569 57.4175C278.384 52.3474 267.15 49.7955 255.796 49.9726C245.117 49.8936 234.53 51.975 224.661 56.0939C215.624 59.9403 207.435 65.5643 200.573 72.6381C193.73 79.8532 188.431 88.4131 185.005 97.7851C181.33 107.903 179.498 118.608 179.598 129.384C179.429 140.314 181.205 151.185 184.842 161.48C187.93 170.803 192.833 179.409 199.262 186.793C205.913 194.041 214.088 199.694 223.186 203.337C233.331 207.239 244.122 209.148 254.976 208.962C270.207 209.441 285.243 205.416 298.237 197.381C311.362 187.965 320.81 174.211 324.948 158.502H288.733C286.794 163.699 283.227 168.114 278.573 171.076ZM222.367 102.914C223.642 98.7891 225.759 94.9798 228.582 91.7314C231.404 88.483 234.869 85.8675 238.754 84.0535C243.898 81.7156 249.501 80.5843 255.14 80.7447C259.214 80.3934 263.315 80.936 267.162 82.3353C271.009 83.7345 274.51 85.9574 277.426 88.8513C282.994 95.7326 286.567 104.035 287.75 112.84H219.745C220.01 109.478 220.614 106.152 221.548 102.914H222.367ZM135.682 94.9726C144.022 91.4663 151.269 85.7502 156.657 78.4285C161.609 70.6528 164.069 61.5259 163.703 52.2888C164.024 43.8651 162.397 35.4818 158.951 27.8035C156.055 21.1514 151.408 15.4289 145.514 11.2593C139.265 6.92433 132.168 3.99089 124.703 2.65639C115.867 0.785475 106.855 -0.102175 97.8284 0.00933678H0V208.134H99.9587C109.081 208.141 118.167 206.974 126.997 204.66C135.366 202.474 143.295 198.836 150.43 193.907C157.34 189.071 162.968 182.594 166.816 175.046C171.075 166.605 173.16 157.217 172.879 147.748C173.19 136.014 169.93 124.466 163.539 114.66C156.666 104.799 146.473 97.8003 134.862 94.9726H135.682ZM45.3911 35.5792H87.8325C91.7316 35.5744 95.624 35.9065 99.467 36.5719C103.006 37.1013 106.404 38.3387 109.463 40.2116C112.418 41.8993 114.813 44.4321 116.345 47.491C118.243 51.1591 119.148 55.2683 118.967 59.4028C119.272 62.9637 118.733 66.5468 117.394 69.8554C116.054 73.164 113.954 76.1028 111.265 78.4285C105.401 82.4989 98.3836 84.5314 91.2737 84.2189H45.3911V35.5792ZM124.703 158.668C123.019 162.039 120.473 164.895 117.329 166.94C114.056 168.994 110.451 170.451 106.677 171.241C102.483 172.189 98.1929 172.633 93.8956 172.565H44.7356V115.487H93.8956C102.332 115.114 110.663 117.493 117.656 122.27C120.816 125.133 123.263 128.707 124.801 132.702C126.338 136.697 126.922 141.001 126.505 145.267C126.948 149.814 126.331 154.404 124.703 158.668Z" fill="black"/>
</svg>
