<svg width="45" height="51" viewBox="0 0 45 51" fill="none" xmlns="http://www.w3.org/2000/svg">
<path d="M8.10434 41.4654C7.34018 40.9559 6.68301 40.3038 5.91375 39.3868C5.51448 38.8981 5.11881 38.4064 4.72676 37.9119C3.5474 36.4472 2.80362 35.7697 2.03691 35.492C1.71431 35.3852 1.41633 35.215 1.16053 34.9913C0.90472 34.7676 0.696255 34.495 0.547408 34.1895C0.398561 33.884 0.312341 33.5519 0.293824 33.2126C0.275307 32.8732 0.324868 32.5337 0.439589 32.2138C0.55431 31.8939 0.731872 31.6002 0.961818 31.35C1.19176 31.0998 1.46945 30.8982 1.77851 30.7569C2.08758 30.6157 2.42178 30.5377 2.76144 30.5276C3.1011 30.5175 3.43935 30.5755 3.75627 30.6981C5.67177 31.3858 6.96829 32.5703 8.71567 34.7431C8.47624 34.4451 9.58172 35.8308 9.81861 36.1161C10.3026 36.6943 10.6592 37.0458 10.9394 37.2318C11.459 37.5808 12.4371 37.7311 13.8687 37.5884C13.9298 36.6154 14.1081 35.6703 14.3832 34.7966C6.8231 32.9498 2.5438 28.0718 2.5438 18.5043C2.5438 15.3508 3.48627 12.5055 5.23874 10.1212C4.68345 7.84396 4.76751 5.09037 6.008 1.99034C6.14846 1.6392 6.36536 1.32374 6.64293 1.06687C6.9205 0.809998 7.25179 0.618161 7.61274 0.505282C7.81906 0.444148 7.93623 0.418675 8.14255 0.385561C10.188 0.0722467 13.0765 0.818596 16.8412 3.17991C19.0848 2.65539 21.3815 2.39212 23.6856 2.39536C26.0086 2.39536 28.3189 2.65772 30.5223 3.17991C34.2845 0.803312 37.1807 0.0544158 39.2388 0.385561C39.4553 0.421222 39.6413 0.467073 39.7941 0.515471C40.1477 0.632076 40.4715 0.824795 40.7426 1.08005C41.0137 1.33531 41.2255 1.64691 41.3632 1.99289C42.6036 5.08782 42.6877 7.84142 42.1324 10.1187C43.8925 12.5029 44.8274 15.3278 44.8274 18.5043C44.8274 28.0769 40.5633 32.9371 33.0032 34.789C33.3216 35.8461 33.4872 37.0255 33.4872 38.3042C33.4872 39.9956 33.4821 41.6131 33.4694 43.4242C33.4694 43.9082 33.4643 44.4278 33.4566 45.2226C34.0274 45.3483 34.5376 45.6664 34.9016 46.1236C35.2656 46.5808 35.4614 47.1493 35.456 47.7337C35.4506 48.3181 35.2444 48.8829 34.8721 49.3333C34.4997 49.7837 33.9838 50.0924 33.4108 50.2076C30.507 50.7884 28.3571 48.8524 28.3571 46.3256L28.3622 45.1869L28.375 43.3911C28.3877 41.5902 28.3954 39.9829 28.3954 38.3042C28.3954 36.5288 27.9267 35.3698 27.3102 34.8374C25.6265 33.3854 26.4799 30.6242 28.6883 30.3771C36.2433 29.5263 39.733 26.5995 39.733 18.5068C39.733 16.0742 38.9382 14.0618 37.4074 12.3806C37.0857 12.0272 36.87 11.5903 36.7849 11.1201C36.6998 10.6498 36.7486 10.1651 36.9259 9.7213C37.3488 8.66418 37.5271 7.28356 37.1679 5.61001L37.1424 5.6151C35.8918 5.97172 34.315 6.7359 32.4097 8.03501C32.1025 8.24352 31.7534 8.38233 31.3869 8.44173C31.0204 8.50114 30.6453 8.47969 30.2879 8.37889C28.138 7.7827 25.9167 7.48275 23.6856 7.48735C21.4186 7.48735 19.1719 7.79302 17.0832 8.37889C16.7277 8.47887 16.3548 8.50035 15.9901 8.44185C15.6255 8.38335 15.278 8.24627 14.9716 8.0401C13.0536 6.74864 11.4717 5.98446 10.2083 5.62784C9.84408 7.29121 10.0249 8.66928 10.4452 9.7213C10.6225 10.1651 10.6714 10.6498 10.5863 11.1201C10.5011 11.5903 10.2854 12.0272 9.9638 12.3806C8.44312 14.0517 7.63821 16.0971 7.63821 18.5043C7.63821 26.5842 11.1304 29.534 18.6472 30.3746C20.8505 30.6242 21.7089 33.3752 20.0354 34.8297C19.5438 35.2551 18.9401 36.6943 18.9401 38.3042V46.3256C18.9401 48.8372 16.8158 50.7221 13.9476 50.2203C13.3649 50.1196 12.8354 49.8192 12.4499 49.3707C12.0644 48.9221 11.847 48.3535 11.8349 47.7622C11.8229 47.1709 12.0169 46.5939 12.3838 46.13C12.7507 45.6662 13.2676 45.3445 13.8457 45.22V42.6982C11.5278 42.8562 9.61484 42.4766 8.10434 41.4654Z" fill="white"/>
</svg>
