<svg width="326" height="328" viewBox="0 0 326 328" fill="none" xmlns="http://www.w3.org/2000/svg">
<path d="M163.655 0.000976939C74.21 0.000976939 1.31056 72.9808 1.31056 162.524C1.31056 191.224 8.84623 219.104 22.9347 243.704L0 328L86.005 305.368C109.759 318.324 136.461 325.212 163.655 325.212C253.1 325.212 326 252.232 326 162.688C326 119.229 309.127 78.3927 278.492 47.7248C263.474 32.5373 245.584 20.4955 225.868 12.3018C206.151 4.10809 185.003 -0.0734737 163.655 0.000976939ZM163.819 27.3889C199.859 27.3889 233.606 41.4929 259.162 67.0768C271.704 79.6286 281.648 94.5355 288.423 110.943C295.197 127.35 298.67 144.935 298.642 162.688C298.642 237.144 238.029 297.66 163.655 297.66C139.41 297.66 115.656 291.264 95.0151 278.8L90.1005 276.012L38.9889 289.46L52.5859 239.604L49.3095 234.356C35.7771 212.851 28.6194 187.942 28.6683 162.524C28.8322 88.0687 89.2814 27.3889 163.819 27.3889ZM106.155 87.4127C103.534 87.4127 99.1105 88.3967 95.3427 92.4967C91.7387 96.5967 81.0904 106.601 81.0904 126.445C81.0904 146.453 95.6703 165.64 97.4724 168.428C99.7658 171.216 126.305 212.216 167.095 229.6C176.761 234.028 184.296 236.488 190.194 238.292C199.859 241.408 208.706 240.916 215.75 239.932C223.613 238.784 239.667 230.092 243.108 220.58C246.548 211.068 246.548 203.032 245.565 201.228C244.418 199.588 241.797 198.604 237.701 196.8C233.606 194.504 213.62 184.664 210.016 183.352C206.248 182.04 203.955 181.384 200.842 185.32C198.221 189.42 190.358 198.604 188.064 201.228C185.607 204.016 183.314 204.344 179.382 202.376C175.123 200.244 162.017 195.98 146.618 182.204C134.495 171.38 126.468 158.097 124.011 153.997C122.045 150.061 123.847 147.601 125.813 145.797C127.615 143.993 130.236 141.041 131.874 138.581C134.004 136.285 134.659 134.481 135.97 131.857C137.28 129.069 136.625 126.773 135.642 124.805C134.659 123.001 126.468 102.665 123.028 94.6287C119.752 86.7567 116.475 87.7407 113.854 87.5767C111.561 87.5767 108.94 87.4127 106.155 87.4127Z" fill="black"/>
</svg>
