<svg width="82" height="74" viewBox="0 0 82 74" fill="none" xmlns="http://www.w3.org/2000/svg">
<path d="M41 29.9125C44.8625 29.9125 48.0125 33.0625 48.0125 37C48.0125 40.75 44.8625 43.9375 41 43.9375C37.1375 43.9375 33.9875 40.75 33.9875 37C33.9875 33.0625 37.1375 29.9125 41 29.9125ZM23.6375 67C26 68.425 31.175 66.25 37.1375 60.625C35.1875 58.4125 33.275 56.0125 31.475 53.5C28.4531 53.2108 25.4488 52.7602 22.475 52.15C20.5625 60.175 21.275 65.6875 23.6375 67ZM26.3 45.475L25.2125 43.5625C24.8 44.65 24.3875 45.7375 24.125 46.7875C25.1375 47.0125 26.2625 47.2 27.425 47.3875L26.3 45.475ZM50.825 42.625L53.8625 37L50.825 31.375C49.7 29.3875 48.5 27.625 47.4125 25.8625C45.3875 25.75 43.25 25.75 41 25.75C38.75 25.75 36.6125 25.75 34.5875 25.8625C33.5 27.625 32.3 29.3875 31.175 31.375L28.1375 37L31.175 42.625C32.3 44.6125 33.5 46.375 34.5875 48.1375C36.6125 48.25 38.75 48.25 41 48.25C43.25 48.25 45.3875 48.25 47.4125 48.1375C48.5 46.375 49.7 44.6125 50.825 42.625ZM41 17.425C40.2875 18.25 39.5375 19.1125 38.7875 20.125H43.2125C42.4625 19.1125 41.7125 18.25 41 17.425ZM41 56.575C41.7125 55.75 42.4625 54.8875 43.2125 53.875H38.7875C39.5375 54.8875 40.2875 55.75 41 56.575ZM58.325 7.00003C56 5.57503 50.825 7.75003 44.8625 13.375C46.8125 15.5875 48.725 17.9875 50.525 20.5C53.6 20.8 56.6375 21.25 59.525 21.85C61.4375 13.825 60.725 8.31253 58.325 7.00003ZM55.7 28.525L56.7875 30.4375C57.2 29.35 57.6125 28.2625 57.875 27.2125C56.8625 26.9875 55.7375 26.8 54.575 26.6125L55.7 28.525ZM61.1375 2.08753C66.65 5.23753 67.25 13.525 64.925 23.2C74.45 26.0125 81.3125 30.6625 81.3125 37C81.3125 43.3375 74.45 47.9875 64.925 50.8C67.25 60.475 66.65 68.7625 61.1375 71.9125C55.6625 75.0625 48.2 71.4625 41 64.6C33.8 71.4625 26.3375 75.0625 20.825 71.9125C15.35 68.7625 14.75 60.475 17.075 50.8C7.55 47.9875 0.6875 43.3375 0.6875 37C0.6875 30.6625 7.55 26.0125 17.075 23.2C14.75 13.525 15.35 5.23753 20.825 2.08753C26.3375 -1.06247 33.8 2.53753 41 9.40003C48.2 2.53753 55.6625 -1.06247 61.1375 2.08753ZM60.05 37C61.325 39.8125 62.45 42.625 63.3875 45.475C71.2625 43.1125 75.6875 39.7375 75.6875 37C75.6875 34.2625 71.2625 30.8875 63.3875 28.525C62.45 31.375 61.325 34.1875 60.05 37ZM21.95 37C20.675 34.1875 19.55 31.375 18.6125 28.525C10.7375 30.8875 6.3125 34.2625 6.3125 37C6.3125 39.7375 10.7375 43.1125 18.6125 45.475C19.55 42.625 20.675 39.8125 21.95 37ZM55.7 45.475L54.575 47.3875C55.7375 47.2 56.8625 47.0125 57.875 46.7875C57.6125 45.7375 57.2 44.65 56.7875 43.5625L55.7 45.475ZM44.8625 60.625C50.825 66.25 56 68.425 58.325 67C60.725 65.6875 61.4375 60.175 59.525 52.15C56.6375 52.75 53.6 53.2 50.525 53.5C48.725 56.0125 46.8125 58.4125 44.8625 60.625ZM26.3 28.525L27.425 26.6125C26.2625 26.8 25.1375 26.9875 24.125 27.2125C24.3875 28.2625 24.8 29.35 25.2125 30.4375L26.3 28.525ZM37.1375 13.375C31.175 7.75003 26 5.57503 23.6375 7.00003C21.275 8.31253 20.5625 13.825 22.475 21.85C25.4488 21.2399 28.4531 20.7892 31.475 20.5C33.275 17.9875 35.1875 15.5875 37.1375 13.375Z" fill="white"/>
</svg>
