<svg width="76" height="46" viewBox="0 0 76 46" fill="none" xmlns="http://www.w3.org/2000/svg">
<path d="M38 0.5C27.9875 0.5 21.7625 5.4875 19.25 15.5C23 10.5125 27.3875 8.6375 32.375 9.875C35.225 10.5875 37.2875 12.65 39.5375 14.9375C43.2125 18.6875 47.375 23 56.75 23C66.7625 23 72.9875 18.0125 75.5 8C71.75 12.9875 67.3625 14.8625 62.375 13.625C59.525 12.9125 57.5 10.85 55.2125 8.5625C51.5375 4.8125 47.375 0.5 38 0.5ZM19.25 23C9.2375 23 3.0125 27.9875 0.5 38C4.25 33.0125 8.6375 31.1375 13.625 32.375C16.475 33.0875 18.5 35.15 20.7875 37.4375C24.4625 41.1875 28.625 45.5 38 45.5C48.0125 45.5 54.2375 40.5125 56.75 30.5C53 35.4875 48.6125 37.3625 43.625 36.125C40.775 35.4125 38.75 33.35 36.4625 31.0625C32.7875 27.3125 28.625 23 19.25 23Z" fill="white"/>
</svg>
