<svg width="68" height="68" viewBox="0 0 68 68" fill="none" xmlns="http://www.w3.org/2000/svg">
<path d="M61.15 0.25H6.85C5.09957 0.25 3.42083 0.945355 2.18309 2.18309C0.945355 3.42083 0.25 5.09957 0.25 6.85V61.15C0.25 62.9004 0.945355 64.5792 2.18309 65.8169C3.42083 67.0546 5.09957 67.75 6.85 67.75H61.15C62.0167 67.75 62.875 67.5793 63.6757 67.2476C64.4765 66.9159 65.204 66.4298 65.8169 65.8169C66.4298 65.204 66.9159 64.4765 67.2476 63.6757C67.5793 62.875 67.75 62.0167 67.75 61.15V6.85C67.75 5.98328 67.5793 5.12504 67.2476 4.32429C66.9159 3.52354 66.4298 2.79596 65.8169 2.18309C65.204 1.57023 64.4765 1.08408 63.6757 0.752395C62.875 0.420714 62.0167 0.25 61.15 0.25ZM39.4 37.75H30.9625V61.9H24.25V37.75H15.8125V32.275H39.4V37.75ZM61.15 57.55C60.6071 58.7043 59.7324 59.6705 58.6375 60.325C57.4856 61.034 56.2153 61.5294 54.8875 61.7875C53.4072 62.0932 51.8991 62.244 50.3875 62.2375C48.8409 62.2362 47.2973 62.0981 45.775 61.825C44.4811 61.56 43.2225 61.1447 42.025 60.5875V54.175L41.8 53.95H42.025V54.2125C43.1529 55.0925 44.4205 55.777 45.775 56.2375C47.1276 56.7525 48.5653 57.007 50.0125 56.9875C50.7687 57.0007 51.5239 56.9252 52.2625 56.7625C52.8173 56.6327 53.3486 56.4176 53.8375 56.125C54.2202 55.8917 54.5417 55.5702 54.775 55.1875C55.0059 54.7516 55.1074 54.2588 55.0675 53.7672C55.0277 53.2755 54.8481 52.8055 54.55 52.4125C54.1975 51.9183 53.7516 51.4979 53.2375 51.175C52.6133 50.7361 51.9476 50.3593 51.25 50.05L48.7375 49C46.7486 48.1809 44.9864 46.8946 43.6 45.25C42.4398 43.8514 41.8268 42.0791 41.875 40.2625C41.8313 38.8824 42.1411 37.5141 42.775 36.2875C43.3799 35.2183 44.2277 34.3063 45.25 33.625C46.389 32.8672 47.6615 32.3328 49 32.05C50.4633 31.7132 51.961 31.5496 53.4625 31.5625C54.8298 31.5434 56.1964 31.6312 57.55 31.825C58.6762 32.0011 59.7817 32.29 60.85 32.6875V38.875C60.3564 38.5232 59.8287 38.2216 59.275 37.975C58.6787 37.7184 58.0646 37.5053 57.4375 37.3375C56.8365 37.1616 56.2219 37.0361 55.6 36.9625C55.0263 36.9084 54.4487 36.9084 53.875 36.9625C53.1684 36.9508 52.4631 37.0264 51.775 37.1875C51.2106 37.3059 50.667 37.5081 50.1625 37.7875C49.7687 38.0195 49.4348 38.3406 49.1875 38.725C48.963 39.0985 48.8462 39.5268 48.85 39.9625C48.8409 40.4277 48.9715 40.8849 49.225 41.275C49.533 41.7009 49.9139 42.0691 50.35 42.3625C50.8787 42.7834 51.4583 43.1362 52.075 43.4125L54.4375 44.4625C55.5238 44.9116 56.5765 45.4379 57.5875 46.0375C58.4765 46.524 59.2859 47.1437 59.9875 47.875C60.675 48.5412 61.212 49.3467 61.5625 50.2375C61.9221 51.2612 62.0998 52.34 62.0875 53.425C62.0607 54.8256 61.7413 56.2051 61.15 57.475V57.55Z" fill="white"/>
</svg>
