<svg width="68" height="90" viewBox="0 0 68 90" fill="none" xmlns="http://www.w3.org/2000/svg">
<path fill-rule="evenodd" clip-rule="evenodd" d="M12.1077 0H8.05005L8.05371 12.135H12.1077V8.07373H15.8201V12.135H19.8774V0H15.8201V4.00879H12.1077V0ZM21.6401 4.0238H25.21V12.135H29.2676V4.0238H32.8413V0H21.6401V4.0238ZM38.8489 0H34.6189V12.135H38.5862V6.12378L41.3801 10.4363H41.4514L44.2412 6.12V12.135H48.28V0H44.05L41.4514 4.26379L38.8489 0ZM54.3589 0H50.2976V12.1388H60.0588V8.12622H54.3589V0ZM0.25 17.6887L7.92261 82.77L33.9624 90L60.0737 82.7625L67.75 17.6887H0.25ZM22.7087 38.97L23.4363 47.145V47.1487H52.5288L52.3337 49.2899L50.3389 71.6549L33.9624 76.1925L17.6125 71.6549L16.4951 59.1224H24.5125L25.0825 65.4862L33.97 67.8862H33.9775L42.8799 65.4788L43.8062 55.1287H16.1426L13.99 30.99H53.9651L53.2524 38.97H22.7087Z" fill="white"/>
</svg>
