<svg width="90" height="90" viewBox="0 0 90 90" fill="none" xmlns="http://www.w3.org/2000/svg">
<mask id="mask0_11_63" style="mask-type:luminance" maskUnits="userSpaceOnUse" x="0" y="0" width="90" height="90">
<path d="M0 0H90V90H0V0Z" fill="white"/>
</mask>
<g mask="url(#mask0_11_63)">
<path d="M42.0525 0.0229687C41.8575 0.0417187 41.2425 0.105469 40.6875 0.146719C27.9075 1.30172 15.9375 8.19797 8.3475 18.7992C4.15613 24.6182 1.43145 31.363 0.405 38.4605C0.045 40.9355 0 41.663 0 45.0155C0 48.368 0.045 49.0992 0.405 51.5705C2.85 68.4717 14.88 82.6692 31.1888 87.9305C34.11 88.8717 37.1888 89.513 40.6875 89.903C42.0525 90.053 47.9475 90.053 49.3125 89.903C55.3537 89.2317 60.4762 87.7355 65.5237 85.1592C66.3 84.7655 66.45 84.6567 66.345 84.5705C63.876 81.3144 61.4322 78.0393 59.0138 74.7455L51.8175 65.0217L42.8025 51.6755C39.8029 47.2115 36.7754 42.7664 33.72 38.3405C33.6862 38.3292 33.6525 44.258 33.6337 51.503C33.6075 64.178 33.5962 64.688 33.4387 64.988C33.2851 65.3381 33.011 65.6215 32.6663 65.7867C32.385 65.9292 32.1412 65.9555 30.81 65.9555H29.2875L28.8825 65.7005C28.6319 65.5422 28.4285 65.3194 28.2938 65.0555L28.1062 64.6617L28.125 47.0217L28.1512 29.3742L28.425 29.0292C28.6093 28.8135 28.8302 28.632 29.0775 28.493C29.4375 28.3167 29.5762 28.3017 31.1025 28.3017C32.895 28.3017 33.195 28.3692 33.66 28.8792C33.7912 29.0217 38.6738 36.3792 44.5163 45.2367L62.2687 72.1317L69.3937 82.9242L69.7575 82.688C73.1865 80.4083 76.2953 77.6804 79.0012 74.5767C84.6719 68.0866 88.3501 60.0985 89.595 51.5705C89.955 49.0955 90 48.368 90 45.0155C90 41.663 89.955 40.9355 89.595 38.4605C87.15 21.563 75.12 7.36172 58.8112 2.10047C55.7632 1.13135 52.6246 0.474233 49.4438 0.139219C48.5963 0.0492187 42.7838 -0.0482812 42.0563 0.0267187L42.0525 0.0229687ZM60.4763 27.248C60.6854 27.3533 60.8716 27.499 61.0241 27.6766C61.1766 27.8542 61.2925 28.0603 61.365 28.283C61.4325 28.508 61.4512 33.4017 61.4325 44.4267L61.4062 60.2442L58.62 55.9692L55.8225 51.6942V40.1967C55.8225 32.7605 55.8563 28.583 55.9088 28.3805C55.9712 28.1462 56.0805 27.9271 56.23 27.7363C56.3795 27.5455 56.5662 27.387 56.7787 27.2705C57.1425 27.083 57.2737 27.068 58.6537 27.068C59.955 27.068 60.1838 27.0905 60.4763 27.248Z" fill="white"/>
</g>
</svg>
