<svg width="68" height="68" viewBox="0 0 68 68" fill="none" xmlns="http://www.w3.org/2000/svg">
<path d="M11.5 0.25C8.51631 0.25 5.65483 1.43526 3.54505 3.54505C1.43526 5.65483 0.25 8.51631 0.25 11.5V56.5C0.25 59.4837 1.43526 62.3452 3.54505 64.455C5.65483 66.5647 8.51631 67.75 11.5 67.75H56.5C59.4837 67.75 62.3452 66.5647 64.455 64.455C66.5647 62.3452 67.75 59.4837 67.75 56.5V11.5C67.75 8.51631 66.5647 5.65483 64.455 3.54505C62.3452 1.43526 59.4837 0.25 56.5 0.25H11.5ZM39.0025 49.2063C41.7025 51.3813 44.395 52.45 47.0875 52.4238C48.7375 52.4238 50.005 52.1237 50.8825 51.5162C51.2922 51.2503 51.6256 50.8822 51.8498 50.4482C52.0741 50.0142 52.1814 49.5293 52.1613 49.0412C52.1667 48.5089 52.0553 47.9819 51.8351 47.4972C51.6148 47.0126 51.2909 46.5822 50.8863 46.2362C50.005 45.4675 48.34 44.6988 45.8912 43.9263C42.9512 43.075 40.6787 41.9763 39.085 40.6263C37.5175 39.2763 36.7225 37.3938 36.6925 34.975C36.6925 32.6913 37.6825 30.7825 39.6625 29.2412C41.59 27.7037 44.05 26.9312 47.05 26.9312C51.2275 26.9312 54.5838 27.9475 57.1113 29.9837L54.2237 34.48C53.1842 33.6714 51.9914 33.082 50.7175 32.7475C49.5727 32.3646 48.3768 32.156 47.17 32.1288C45.745 32.1288 44.6012 32.3913 43.7462 32.9125C42.895 33.4375 42.4712 34.1238 42.4712 34.975C42.4712 35.9125 42.9925 36.7075 44.035 37.3675C45.085 38.0012 46.87 38.7025 49.3975 39.4712C52.45 40.3787 54.625 41.59 55.915 43.1013C57.2087 44.6125 57.8538 46.54 57.8538 48.8763C57.8538 51.2688 56.935 53.3313 55.09 55.0638C53.275 56.77 50.635 57.6625 47.17 57.745C42.6325 57.745 38.8375 56.3838 35.785 53.6613L39.0025 49.2063ZM18.265 51.5988C19.1462 52.15 20.2038 52.4238 21.4413 52.4238C22.735 52.4238 23.8037 52.0525 24.6587 51.31C25.51 50.5412 25.9375 49.2062 25.9375 47.3087V27.4262H31.5063V48.3813C31.4238 51.625 30.49 53.965 28.7012 55.3937C27.7252 56.2237 26.5875 56.8417 25.36 57.2087C24.2231 57.5551 23.0422 57.7358 21.8537 57.745C19.7912 57.745 17.9612 57.3887 16.3675 56.6725C14.6612 55.9037 13.2325 54.5425 12.0775 52.5888L15.955 49.4125C16.6675 50.3763 17.44 51.1038 18.265 51.5988Z" fill="white"/>
</svg>
