<svg width="50" height="76" viewBox="0 0 50 76" fill="none" xmlns="http://www.w3.org/2000/svg">
<path d="M37.4949 25.505C40.7434 25.4076 43.8262 24.0486 46.0895 21.7163C48.3528 19.384 49.6187 16.2619 49.6187 13.0119C49.6187 9.76197 48.3528 6.63982 46.0895 4.30754C43.8262 1.97527 40.7434 0.616291 37.4949 0.518799H12.5049C9.25643 0.616291 6.17366 1.97527 3.91033 4.30754C1.647 6.63982 0.381109 9.76197 0.381109 13.0119C0.381109 16.2619 1.647 19.384 3.91033 21.7163C6.17366 24.0486 9.25643 25.4076 12.5049 25.505C9.22803 25.5618 6.10454 26.9034 3.80724 29.2408C1.50994 31.5783 0.222656 34.7245 0.222656 38.0019C0.222656 41.2793 1.50994 44.4256 3.80724 46.763C6.10454 49.1004 9.22803 50.442 12.5049 50.4988C9.24404 50.5787 6.14359 51.9302 3.86553 54.2648C1.58747 56.5993 0.312317 59.7319 0.312317 62.9938C0.312317 66.2557 1.58747 69.3883 3.86553 71.7228C6.14359 74.0574 9.24404 75.4089 12.5049 75.4888C15.8188 75.4868 18.9964 74.1692 21.3393 71.8256C23.6823 69.4819 24.9989 66.304 24.9999 62.9901V25.505H37.4949Z" fill="white"/>
</svg>
