<svg width="70" height="70" viewBox="0 0 70 70" fill="none" xmlns="http://www.w3.org/2000/svg">
<path fill-rule="evenodd" clip-rule="evenodd" d="M54.6126 1.55753C41.5775 0.112659 28.4226 0.112659 15.3876 1.55753C8.26631 2.35253 2.52506 7.95878 1.68881 15.1063C0.142792 28.325 0.142792 41.6788 1.68881 54.8975C2.52506 62.0413 8.26631 67.6475 15.3876 68.4463C28.4239 69.8916 41.58 69.8916 54.6163 68.4463C61.7338 67.6475 67.4751 62.0413 68.3113 54.8938C69.8571 41.6763 69.8571 28.3237 68.3113 15.1063C67.4751 7.95878 61.7338 2.35253 54.6126 1.55753ZM49.7451 48.125V28.0363H44.6301V48.125H49.7451ZM47.1876 19.6625C45.4963 19.6625 44.3451 20.8588 44.3451 22.4263C44.3451 23.9525 45.4588 25.1488 47.1501 25.1488C48.9201 25.1488 50.0376 23.9525 50.0376 22.4263C49.9926 20.8588 48.9238 19.6625 47.1876 19.6625ZM34.8576 40.2463L37.3738 48.125H42.8226L33.7888 20.3225H27.3126L18.4026 48.125H23.6413L26.0338 40.2463H34.8576ZM26.8586 36.41L29.0036 29.5625C29.3299 28.4787 29.6186 27.2712 29.8961 26.1087C29.9303 25.9679 29.964 25.8279 29.9974 25.689C30.1073 25.2324 30.2144 24.7876 30.3236 24.365H30.4061C30.4868 24.6811 30.5668 24.9973 30.6461 25.3137L30.6722 25.4164C31.0137 26.7645 31.3844 28.2277 31.8086 29.5625L33.9949 36.41H26.8586Z" fill="white"/>
</svg>
