<svg width="50" height="76" viewBox="0 0 50 76" fill="none" xmlns="http://www.w3.org/2000/svg">
<path fill-rule="evenodd" clip-rule="evenodd" d="M46.0896 21.7163C43.8262 24.0486 40.7434 25.4076 37.4949 25.505H25V38V62.99C24.999 66.304 23.6824 69.4819 21.3394 71.8256C18.9963 74.1692 15.8188 75.4868 12.5049 75.4888C9.24414 75.4089 6.14355 74.0574 3.86548 71.7228C1.5874 69.3883 0.312256 66.2556 0.312256 62.9938C0.312256 59.7319 1.5874 56.5994 3.86548 54.2648C6.14355 51.9302 9.24414 50.5787 12.5049 50.4988C9.22803 50.442 6.10449 49.1005 3.80713 46.7629C1.51001 44.4255 0.222656 41.2793 0.222656 38.002C0.222656 34.7245 1.51001 31.5782 3.80713 29.2408C6.10449 26.9034 9.22803 25.5618 12.5049 25.505C9.25635 25.4076 6.17358 24.0486 3.9104 21.7163C1.64697 19.384 0.381104 16.2618 0.381104 13.012C0.381104 9.76196 1.64697 6.63977 3.9104 4.3075C6.17358 1.97522 9.25635 0.616333 12.5049 0.518799H37.4949C40.7434 0.616333 43.8262 1.97522 46.0896 4.3075C48.3528 6.63977 49.6187 9.76196 49.6187 13.012C49.6187 16.2618 48.3528 19.384 46.0896 21.7163ZM25 38C25 44.9008 30.5942 50.495 37.4951 50.495C44.3958 50.495 49.99 44.9008 49.99 38C49.99 31.0992 44.3958 25.505 37.4949 25.505C30.5942 25.505 25 31.0992 25 38Z" fill="white"/>
</svg>
