<svg width="90" height="73" viewBox="0 0 90 73" fill="none" xmlns="http://www.w3.org/2000/svg">
<path fill-rule="evenodd" clip-rule="evenodd" d="M18.6938 0.5C13.5563 0.5 9.7575 4.99625 9.93 9.8675C10.0913 14.555 9.88125 20.6188 8.355 25.565C6.8175 30.5225 4.23 33.665 0 34.07V38.6263C4.23 39.0275 6.82125 42.17 8.35125 47.1313C9.88125 52.0775 10.0913 58.1413 9.92625 62.825C9.7575 67.7 13.5563 72.1963 18.6938 72.1963H71.3138C76.4513 72.1963 80.25 67.7 80.0775 62.825C79.9163 58.1413 80.1263 52.0775 81.6525 47.1313C83.1863 42.17 85.77 39.0313 90 38.6263V34.07C85.77 33.665 83.1863 30.5225 81.6525 25.565C80.1263 20.615 79.9163 14.5513 80.0775 9.8675C80.25 4.9925 76.4475 0.5 71.3138 0.5H18.6938ZM61.0125 44.6338C61.0125 51.3463 56.0063 55.415 47.7 55.415H33.5588C33.154 55.415 32.7658 55.2542 32.4795 54.968C32.1933 54.6817 32.0325 54.2935 32.0325 53.8888V18.8038C32.0335 18.3996 32.1947 18.0124 32.4809 17.727C32.767 17.4415 33.1546 17.2812 33.5588 17.2813H47.6213C54.5475 17.2813 59.0962 21.0313 59.0962 26.795C59.0962 30.8375 56.0363 34.4563 52.14 35.0938V35.3038C57.4463 35.885 61.0125 39.56 61.0125 44.6338ZM46.1625 22.115H38.1V33.5075H44.8912C50.1412 33.5075 53.0362 31.3925 53.0362 27.6125C53.0362 24.0725 50.5463 22.115 46.1625 22.115ZM38.1 38.0263V50.5775H46.4625C51.9263 50.5775 54.825 48.3838 54.825 44.2625C54.825 40.1375 51.8475 38.0263 46.11 38.0263H38.1Z" fill="white"/>
</svg>
