<svg width="76" height="76" viewBox="0 0 76 76" fill="none" xmlns="http://www.w3.org/2000/svg">
<path d="M38 0.5C17.3375 0.5 0.5 17.3375 0.5 38C0.5 58.6625 17.3375 75.5 38 75.5C58.6625 75.5 75.5 58.6625 75.5 38C75.5 17.3375 58.6625 0.5 38 0.5ZM4.2875 38C4.2875 33.125 5.3375 28.475 7.2125 24.275L23.3 68.3375C12.05 62.8625 4.2875 51.35 4.2875 38ZM38 71.7125C34.7 71.7125 31.5125 71.225 28.475 70.325L38.6 40.925L48.95 69.3125C49.025 69.4625 49.1 69.65 49.175 69.7625C45.6875 71.0375 41.9375 71.7125 38 71.7125ZM42.65 22.175C44.675 22.0625 46.5125 21.8375 46.5125 21.8375C48.3125 21.6125 48.125 18.95 46.2875 19.0625C46.2875 19.0625 40.8125 19.475 37.2875 19.475C33.9875 19.475 28.4 19.0625 28.4 19.0625C26.6 18.9875 26.375 21.7625 28.2125 21.875C28.2125 21.875 29.9375 22.1 31.7375 22.2125L36.9875 36.6125L29.6 58.7375L17.3375 22.175C19.3625 22.1 21.2 21.875 21.2 21.875C23 21.65 22.8125 18.9875 20.975 19.1C20.975 19.1 15.5 19.5125 11.975 19.5125C11.3375 19.5125 10.5875 19.5125 9.8 19.475C15.875 10.325 26.225 4.2875 38 4.2875C46.775 4.2875 54.7625 7.625 60.7625 13.1375C60.6125 13.1375 60.4625 13.1 60.3125 13.1C57.0125 13.1 54.65 15.9875 54.65 19.1C54.65 21.875 56.2625 24.2375 57.95 27.0125C59.225 29.2625 60.725 32.15 60.725 36.3125C60.725 39.2 59.6 42.5375 58.175 47.225L54.8 58.475L42.65 22.175ZM67.5875 21.8375C71.7995 29.5461 72.8357 38.5946 70.4752 47.0559C68.1147 55.5171 62.5442 62.7225 54.95 67.1375L65.2625 37.3625C67.175 32.5625 67.8125 28.7 67.8125 25.2875C67.8125 24.05 67.7375 22.8875 67.5875 21.8375Z" fill="white"/>
</svg>
